<?xml version="1.0" encoding="utf-8"?>
<!-- Svg Vector Icons : http://www.onlinewebfonts.com/icon -->
<!DOCTYPE svg PUBLIC "-//W3C//DTD SVG 1.1//EN" "http://www.w3.org/Graphics/SVG/1.1/DTD/svg11.dtd">
<svg version="1.1" xmlns="http://www.w3.org/2000/svg" xmlns:xlink="http://www.w3.org/1999/xlink" x="0px" y="0px"
    viewBox="0 0 1000 1000" enable-background="new 0 0 1000 1000" xml:space="preserve">
    <metadata> Svg Vector Icons : http://www.onlinewebfonts.com/icon </metadata>
    <g stroke="white" fill="white">
        <path
            d="M911.1,267.4c0-0.2,0-0.3,0-0.5c-0.1-0.6-0.2-1.2-0.3-1.7c0-0.2-0.1-0.3-0.1-0.5c-0.1-0.4-0.2-0.9-0.3-1.3c-0.1-0.2-0.1-0.4-0.2-0.6c-0.2-0.5-0.4-1-0.6-1.5c-0.1-0.2-0.2-0.4-0.2-0.5c-0.2-0.4-0.4-0.8-0.6-1.1c-0.1-0.2-0.2-0.3-0.2-0.5c-0.3-0.5-0.6-1-0.9-1.4c-0.1-0.1-0.2-0.2-0.3-0.4c-0.3-0.4-0.6-0.8-0.9-1.2c-0.1-0.1-0.1-0.2-0.2-0.2c-0.4-0.5-0.8-0.9-1.2-1.3c-0.1-0.1-0.2-0.2-0.2-0.2c-0.4-0.4-0.8-0.8-1.2-1.1c-0.1,0-0.1-0.1-0.2-0.1c-0.5-0.4-0.9-0.7-1.4-1.1c-0.1-0.1-0.2-0.1-0.3-0.2c-0.2-0.1-0.4-0.3-0.6-0.4L510.9,13.1c-6.7-4.1-15.1-4.1-21.7,0L98.8,251.5c-0.2,0.1-0.4,0.3-0.6,0.4c-0.1,0.1-0.2,0.1-0.3,0.2c-0.5,0.3-1,0.7-1.4,1.1c-0.1,0-0.1,0.1-0.2,0.1c-0.4,0.4-0.8,0.7-1.2,1.1c-0.1,0.1-0.2,0.2-0.2,0.2c-0.4,0.4-0.8,0.9-1.2,1.3c-0.1,0.1-0.1,0.2-0.2,0.2c-0.3,0.4-0.6,0.8-0.9,1.2c-0.1,0.1-0.2,0.2-0.3,0.4c-0.3,0.5-0.6,0.9-0.9,1.4c-0.1,0.2-0.2,0.3-0.2,0.5c-0.2,0.4-0.4,0.8-0.6,1.2c-0.1,0.2-0.2,0.4-0.2,0.5c-0.2,0.5-0.4,1-0.6,1.5c-0.1,0.2-0.1,0.4-0.2,0.6c-0.1,0.4-0.2,0.9-0.3,1.3c0,0.2-0.1,0.3-0.1,0.5c-0.1,0.6-0.2,1.1-0.3,1.7c0,0.2,0,0.3,0,0.5c-0.1,0.6-0.1,1.2-0.1,1.9v461.4c0,7.3,3.8,14,10,17.8l390.3,238.4c0.2,0.1,0.4,0.2,0.6,0.4c0.1,0.1,0.3,0.2,0.4,0.3c0.5,0.3,1,0.5,1.6,0.8c0.2,0.1,0.3,0.1,0.5,0.2c0.4,0.2,0.8,0.3,1.2,0.4c0.2,0.1,0.4,0.1,0.6,0.2c0.5,0.1,1,0.3,1.5,0.4c0.1,0,0.3,0.1,0.4,0.1c0.5,0.1,1.1,0.2,1.6,0.2c0.2,0,0.3,0,0.5,0.1c0.6,0.1,1.2,0.1,1.9,0.1c0.6,0,1.2,0,1.9-0.1c0.2,0,0.4,0,0.5-0.1c0.5-0.1,1.1-0.1,1.6-0.2c0.1,0,0.3-0.1,0.4-0.1c0.5-0.1,1-0.2,1.5-0.4c0.2-0.1,0.4-0.1,0.6-0.2c0.4-0.1,0.8-0.3,1.2-0.4c0.2-0.1,0.3-0.1,0.5-0.2c0.5-0.2,1-0.5,1.6-0.8c0.2-0.1,0.3-0.2,0.4-0.3c0.2-0.1,0.4-0.2,0.6-0.4l390.3-238.4c6.2-3.8,10-10.5,10-17.8V269.3C911.2,268.7,911.1,268,911.1,267.4z M500,55.3l350.3,214l-90.1,55.1l-350.3-214L500,55.3z M369.9,134.8l350.3,214l-90.1,55.1l-350.3-214L369.9,134.8z M650.9,440l88.4-54l-0.1,70.2l-88.5,54.1L650.9,440z M239.8,214.2l350.3,214L500,483.3l-350.3-214L239.8,214.2z M130.5,306.5l348.6,213V932L130.5,719V306.5z M520.8,932V519.5l88.3-54l-0.2,81.9c0,7.5,4,14.5,10.6,18.2c3.2,1.8,6.7,2.7,10.2,2.7c3.8,0,7.5-1,10.9-3.1L771,485.6c6.2-3.8,10-10.5,10-17.8l0.1-107.4l88.4-54V719L520.8,932z" />
        <path
            d="M382.3,585l-162.7-99.4c-9.8-6-22.7-2.9-28.7,6.9c-6,9.8-2.9,22.7,6.9,28.7l162.7,99.4c3.4,2.1,7.1,3.1,10.8,3.1c7,0,13.9-3.6,17.8-10C395.2,603.9,392.1,591,382.3,585z" />
    </g>
</svg>