<?xml version="1.0" encoding="utf-8"?>
<!-- Svg Vector Icons : http://www.onlinewebfonts.com/icon -->
<!DOCTYPE svg PUBLIC "-//W3C//DTD SVG 1.1//EN" "http://www.w3.org/Graphics/SVG/1.1/DTD/svg11.dtd">
<svg version="1.1" xmlns="http://www.w3.org/2000/svg" xmlns:xlink="http://www.w3.org/1999/xlink" x="0px" y="0px"
    viewBox="0 0 1000 1000" enable-background="new 0 0 1000 1000" xml:space="preserve">
    <metadata> Svg Vector Icons : http://www.onlinewebfonts.com/icon </metadata>
    <g stroke="white" fill="white">
        <path
            d="M958.4,352.4c0.2-4.9-1.3-9.3-4.8-12.9c-1.1-3.3-2.9-6.5-6-8.6L506.9,18.3c-3-2.1-6.4-3.2-10.1-3.3l-250.4-5c-7.9-0.1-15,4.9-17.5,12.4c-2.5,7.5,0.2,15.7,6.7,20.3L350,123.8l-54.6,39.5c-2,0.6-3.9,1.4-5.7,2.6L49.3,339.3c-4.7,3.4-7.5,8.9-7.4,14.8v0.2l-1.2,0.6v304.6l7.7,14.7l440.7,312.5l0.7-0.4c0.8,0.6,1.5,1.3,2.4,1.8c2.7,1.3,5.4,2,8.3,2c3.6,0,7.3-1.1,10.4-3.3l440.7-312.5c4.9-3.4,7.6-8.9,7.6-14.8V354.9C959.3,353.9,958.6,353.3,958.4,352.4 M304.2,47.1l186.3,3.8L879,326.4l-186.3-3.7L304.2,47.1z M481.5,937.1L76.8,650V389.8l404.7,286.9L481.5,937.1L481.5,937.1z M500.5,644.3L90.8,353.7l196.7-141.8l409.7,290.6L500.5,644.3z M923.2,650L518.6,936.9V676.7l404.6-286.9V650z M424.3,696.2L115.9,477.5v141.1l308.5,218.7V696.2z" />
    </g>
</svg>