<svg 
  viewBox="0 0 280.88698 270.89099" version="1.1" y="0px" x="0px" version="0.47 r22583">

  <g id="g3" transform="translate(-157 -285.89)">
    <polygon id="polygon5" style="fill:#dec697"
      points="391.06 404.44 437.89 340.07 437.89 340.07 344.22 285.89 297.44 350.26" />
    <polygon id="polygon7" style="fill:#c5b086"
      points="297.44 350.26 297.44 448.38 306.34 453.47 306.74 453.27 306.84 453.22 306.84 453.22 307.19 453.02 391.06 404.44" />
    <polygon id="polygon9" style="fill:#efd5a3"
      points="297.44 458.67 297.44 556.78 391.06 502.55 391.06 404.44 307.19 453.02 307.19 453.02 306.74 453.27 306.34 453.47" />
    <polygon id="polygon11" style="fill:#cbb58a"
      points="306.34 453.47 297.44 448.38 288.55 453.47 288.55 453.47 289.1 453.82 297.44 458.67" />
    <polygon id="polygon13" style="fill:#efd5a3"
      points="297.44 448.38 297.44 350.26 203.83 404.44 288.05 453.22 288.05 453.22 288.15 453.27 288.55 453.47" />
    <polygon id="polygon15" style="fill:#a49270"
      points="157 394.3 203.83 421.39 250.61 448.47 297.44 458.67 289.1 453.82 288.15 453.27 288.15 453.27 288.05 453.22 203.83 404.44" />
    <polygon id="polygon17" style="fill:#c5b086"
      points="203.83 502.55 297.44 556.78 297.44 458.67 297.44 458.67 250.61 448.47 203.83 421.39" />
  </g>
</svg>