<svg xmlns="http://www.w3.org/2000/svg" version="1.1" xmlns:xlink="http://www.w3.org/1999/xlink" xmlns:svgjs="http://svgjs.com/svgjs" width="1440" height="560" preserveAspectRatio="none" viewBox="0 0 1440 560"><g mask="url(&quot;#SvgjsMask1683&quot;)" fill="none"><rect width="1440" height="560" x="0" y="0" fill="url(#SvgjsLinearGradient1684)"></rect><path d="M703 297L702 486" stroke-width="8" stroke="url(#SvgjsLinearGradient1685)" stroke-linecap="round" class="Up"></path><path d="M850 54L849 -273" stroke-width="10" stroke="url(#SvgjsLinearGradient1685)" stroke-linecap="round" class="Up"></path><path d="M1232 364L1231 686" stroke-width="10" stroke="url(#SvgjsLinearGradient1686)" stroke-linecap="round" class="Down"></path><path d="M257 46L256 231" stroke-width="8" stroke="url(#SvgjsLinearGradient1685)" stroke-linecap="round" class="Up"></path><path d="M389 180L388 -58" stroke-width="6" stroke="url(#SvgjsLinearGradient1686)" stroke-linecap="round" class="Down"></path><path d="M308 241L307 -116" stroke-width="10" stroke="url(#SvgjsLinearGradient1685)" stroke-linecap="round" class="Up"></path><path d="M853 298L852 117" stroke-width="6" stroke="url(#SvgjsLinearGradient1686)" stroke-linecap="round" class="Down"></path><path d="M286 14L285 -206" stroke-width="8" stroke="url(#SvgjsLinearGradient1686)" stroke-linecap="round" class="Down"></path><path d="M674 461L673 52" stroke-width="8" stroke="url(#SvgjsLinearGradient1686)" stroke-linecap="round" class="Down"></path><path d="M34 528L33 704" stroke-width="6" stroke="url(#SvgjsLinearGradient1686)" stroke-linecap="round" class="Down"></path><path d="M724 30L723 175" stroke-width="6" stroke="url(#SvgjsLinearGradient1686)" stroke-linecap="round" class="Down"></path><path d="M661 307L660 593" stroke-width="10" stroke="url(#SvgjsLinearGradient1685)" stroke-linecap="round" class="Up"></path><path d="M887 126L886 -89" stroke-width="10" stroke="url(#SvgjsLinearGradient1686)" stroke-linecap="round" class="Down"></path><path d="M1175 394L1174 -24" stroke-width="8" stroke="url(#SvgjsLinearGradient1686)" stroke-linecap="round" class="Down"></path><path d="M1291 179L1290 478" stroke-width="6" stroke="url(#SvgjsLinearGradient1686)" stroke-linecap="round" class="Down"></path><path d="M1132 287L1131 547" stroke-width="6" stroke="url(#SvgjsLinearGradient1686)" stroke-linecap="round" class="Down"></path><path d="M809 260L808 84" stroke-width="6" stroke="url(#SvgjsLinearGradient1686)" stroke-linecap="round" class="Down"></path><path d="M1050 430L1049 137" stroke-width="6" stroke="url(#SvgjsLinearGradient1685)" stroke-linecap="round" class="Up"></path><path d="M1116 196L1115 -97" stroke-width="6" stroke="url(#SvgjsLinearGradient1686)" stroke-linecap="round" class="Down"></path><path d="M979 52L978 422" stroke-width="6" stroke="url(#SvgjsLinearGradient1686)" stroke-linecap="round" class="Down"></path><path d="M921 324L920 -67" stroke-width="8" stroke="url(#SvgjsLinearGradient1685)" stroke-linecap="round" class="Up"></path><path d="M468 483L467 257" stroke-width="10" stroke="url(#SvgjsLinearGradient1685)" stroke-linecap="round" class="Up"></path><path d="M99 147L98 324" stroke-width="6" stroke="url(#SvgjsLinearGradient1686)" stroke-linecap="round" class="Down"></path><path d="M1306 466L1305 838" stroke-width="10" stroke="url(#SvgjsLinearGradient1686)" stroke-linecap="round" class="Down"></path><path d="M784 414L783 27" stroke-width="6" stroke="url(#SvgjsLinearGradient1686)" stroke-linecap="round" class="Down"></path><path d="M393 431L392 813" stroke-width="6" stroke="url(#SvgjsLinearGradient1685)" stroke-linecap="round" class="Up"></path><path d="M470 500L469 865" stroke-width="10" stroke="url(#SvgjsLinearGradient1685)" stroke-linecap="round" class="Up"></path><path d="M481 212L480 582" stroke-width="8" stroke="url(#SvgjsLinearGradient1685)" stroke-linecap="round" class="Up"></path><path d="M1011 274L1010 673" stroke-width="10" stroke="url(#SvgjsLinearGradient1686)" stroke-linecap="round" class="Down"></path><path d="M985 428L984 631" stroke-width="8" stroke="url(#SvgjsLinearGradient1685)" stroke-linecap="round" class="Up"></path><path d="M1381 478L1380 63" stroke-width="10" stroke="url(#SvgjsLinearGradient1685)" stroke-linecap="round" class="Up"></path><path d="M765 258L764 399" stroke-width="6" stroke="url(#SvgjsLinearGradient1685)" stroke-linecap="round" class="Up"></path><path d="M619 51L618 196" stroke-width="10" stroke="url(#SvgjsLinearGradient1685)" stroke-linecap="round" class="Up"></path><path d="M125 157L124 440" stroke-width="8" stroke="url(#SvgjsLinearGradient1685)" stroke-linecap="round" class="Up"></path><path d="M666 185L665 -169" stroke-width="8" stroke="url(#SvgjsLinearGradient1685)" stroke-linecap="round" class="Up"></path><path d="M157 18L156 -322" stroke-width="10" stroke="url(#SvgjsLinearGradient1685)" stroke-linecap="round" class="Up"></path></g><defs><mask id="SvgjsMask1683"><rect width="1440" height="560" fill="#ffffff"></rect></mask><linearGradient x1="15.28%" y1="-39.29%" x2="84.72%" y2="139.29%" gradientUnits="userSpaceOnUse" id="SvgjsLinearGradient1684"><stop stop-color="#0e2a47" offset="0"></stop><stop stop-color="rgba(0, 31, 36, 1)" offset="1"></stop></linearGradient><linearGradient x1="0%" y1="100%" x2="0%" y2="0%" id="SvgjsLinearGradient1685"><stop stop-color="rgba(28, 83, 142, 0)" offset="0"></stop><stop stop-color="#1c538e" offset="1"></stop></linearGradient><linearGradient x1="0%" y1="0%" x2="0%" y2="100%" id="SvgjsLinearGradient1686"><stop stop-color="rgba(28, 83, 142, 0)" offset="0"></stop><stop stop-color="#1c538e" offset="1"></stop></linearGradient></defs></svg>