<svg xmlns="http://www.w3.org/2000/svg" version="1.1" xmlns:xlink="http://www.w3.org/1999/xlink" xmlns:svgjs="http://svgjs.com/svgjs" width="1429" height="560" preserveAspectRatio="none" viewBox="0 0 1429 560"><g mask="url(&quot;#SvgjsMask1073&quot;)" fill="none"><rect width="1429" height="560" x="0" y="0" fill="rgba(33, 104, 239, 1)"></rect><path d="M0,673.648C123.951,659.523,238.27,597.753,329.396,512.551C411.402,435.877,430.998,319.999,484.056,221.061C541.691,113.587,648.487,27.654,654.746,-94.138C661.388,-223.383,613.201,-361.077,518.503,-449.286C426.16,-535.301,288.295,-545.301,162.322,-552.818C56.2,-559.15,-38.184,-503.14,-143.522,-488.79C-273.955,-471.021,-436.767,-552.274,-529.259,-458.606C-620.157,-366.552,-532.981,-207.294,-548.327,-78.838C-563.161,45.335,-647.872,160.743,-617.75,282.117C-585.714,411.206,-493.797,522.356,-381.456,593.558C-269.448,664.549,-131.757,688.663,0,673.648" fill="#0c41a5"></path><path d="M1429 1082.538C1553.525 1085.5349999999999 1686.067 1190.3220000000001 1792.559 1125.7089999999998 1898.568 1061.3890000000001 1890.223 904.678 1920.375 784.404 1945.325 684.878 1952.027 587.219 1953.275 484.621 1954.758 362.764 2000.5140000000001 225.51100000000002 1928.37 127.29399999999998 1856.137 28.95500000000004 1713.807 21.976999999999975 1594.537-3.768000000000029 1483.046-27.833999999999946 1362.745-65.668 1259.556-17.07299999999998 1159.1689999999999 30.201999999999998 1148.277 171.065 1065.758 245.24900000000002 964.8910000000001 335.928 754.021 326.026 729.514 459.429 705.396 590.7139999999999 906.441 652.189 969.375 769.904 1026.34 876.453 976.614 1040.525 1076.5149999999999 1108.4769999999999 1175.942 1176.107 1308.787 1079.645 1429 1082.538" fill="#7aa4f5"></path></g><defs><mask id="SvgjsMask1073"><rect width="1429" height="560" fill="#ffffff"></rect></mask></defs></svg>