<svg xmlns="http://www.w3.org/2000/svg" version="1.1" xmlns:xlink="http://www.w3.org/1999/xlink" xmlns:svgjs="http://svgjs.com/svgjs" width="1200" height="560" preserveAspectRatio="none" viewBox="0 0 1200 560"><g mask="url(&quot;#SvgjsMask1346&quot;)" fill="none"><rect width="1200" height="560" x="0" y="0" fill="url(#SvgjsLinearGradient1347)"></rect><path d="M 0,301 C 80,254.8 240,40.6 400,70 C 560,99.4 640,419.2 800,448 C 960,476.8 1120,260.8 1200,214L1200 560L0 560z" fill="rgba(1, 23, 137, 1)"></path><path d="M 0,162 C 120,214.2 360,433.4 600,423 C 840,412.6 1080,172.6 1200,110L1200 560L0 560z" fill="rgba(0, 98, 223, 1)"></path><path d="M 0,226 C 120,279.4 360,505.2 600,493 C 840,480.8 1080,230.6 1200,165L1200 560L0 560z" fill="rgba(32, 195, 228, 1)"></path></g><defs><mask id="SvgjsMask1346"><rect width="1200" height="560" fill="#ffffff"></rect></mask><linearGradient x1="13.33%" y1="-28.57%" x2="86.67%" y2="128.57%" gradientUnits="userSpaceOnUse" id="SvgjsLinearGradient1347"><stop stop-color="#0e2a47" offset="0"></stop><stop stop-color="rgba(4, 8, 94, 1)" offset="1"></stop></linearGradient></defs></svg>