<?xml version="1.0" encoding="UTF-8" standalone="no"?>
<svg class="" id="Layer_1" viewBox="0 0 512 300" x="0px" y="0px" width="512" height="300" xml:space="preserve"
    version="1.1">
    <g id="g42" transform="translate(0,-102)">
        <g id="g40">
            <g id="g38">
                <g id="g36">
                    <g id="g34">
                        <path class="" style="fill:#999999"
                            d="m 414.897,295.724 h -88.276 v 26.483 H 35.31 c -4.875,0 -8.828,3.953 -8.828,8.828 v 17.655 c 0,4.875 3.953,8.828 8.828,8.828 h 379.586 v -61.794 z"
                            data-original="#999999" data-old_color="#666666" id="path2" />
                        <path class="" style="fill:#ce1127"
                            d="M 335.448,110.345 H 8.828 C 3.953,110.345 0,114.298 0,119.173 V 313.38 c 0,4.875 3.953,8.828 8.828,8.828 h 326.621 c 4.875,0 8.828,-3.953 8.828,-8.828 V 119.172 c -10e-4,-4.875 -3.954,-8.827 -8.829,-8.827 z"
                            data-original="#CE1127" data-old_color="#ce1127" id="path4" />
                        <g id="g10">
                            <path class="" style="fill:#ce1127"
                                d="M 317.793,304.552 H 26.483 c -4.875,0 -8.828,-3.953 -8.828,-8.828 v 0 c 0,-4.875 3.953,-8.828 8.828,-8.828 h 291.31 c 4.875,0 8.828,3.953 8.828,8.828 v 0 c 0,4.875 -3.953,8.828 -8.828,8.828 z"
                                data-original="#CE1127" data-old_color="#ce1127" id="path6" />
                            <path class="" style="fill:#ce1127"
                                d="M 317.793,145.655 H 26.483 c -4.875,0 -8.828,-3.953 -8.828,-8.828 v 0 c 0,-4.875 3.953,-8.828 8.828,-8.828 h 291.31 c 4.875,0 8.828,3.953 8.828,8.828 v 0 c 0,4.876 -3.953,8.828 -8.828,8.828 z"
                                data-original="#CE1127" data-old_color="#ce1127" id="path8" />
                        </g>
                        <path class="" style="fill:#636363"
                            d="m 446.909,154.483 h -76.15 c -4.875,0 -8.828,3.953 -8.828,8.828 v 132.414 c 0,4.875 3.953,8.828 8.828,8.828 h 39.724 v 44.138 h 92.69 v -63.058 c 0,-10.835 -1.995,-21.577 -5.884,-31.689 L 463.388,165.8 c -2.623,-6.818 -9.173,-11.317 -16.479,-11.317 z"
                            data-original="#636363" data-old_color="#CDCBCB" id="path12" />
                        <rect class="" style="fill:#020202" x="410.483" y="304.552" width="92.690002" height="44.138"
                            data-original="#020202" data-old_color="#030303" id="rect14" />
                        <circle class="" style="fill:#bfbfbf" cx="101.517" cy="353.103" r="40.459999"
                            data-original="#BFBFBF" data-old_color="#FBFBFD" id="circle16" />
                        <path class="active-path" style="fill:#000000"
                            d="m 101.517,401.655 c -26.773,0 -48.552,-21.779 -48.552,-48.552 0,-26.773 21.779,-48.552 48.552,-48.552 26.773,0 48.552,21.779 48.552,48.552 0,26.773 -21.779,48.552 -48.552,48.552 z m 0,-79.448 c -17.039,0 -30.897,13.857 -30.897,30.897 0,17.04 13.858,30.896 30.897,30.896 17.039,0 30.897,-13.857 30.897,-30.897 0,-17.04 -13.857,-30.896 -30.897,-30.896 z"
                            data-original="#000000" data-old_color="#504B5A" id="path18" />
                        <circle class="" style="fill:#ce1127" cx="101.517" cy="353.103" r="17.655001"
                            data-original="#CE1127" data-old_color="#ce1127" id="circle20" />
                        <circle class="" style="fill:#bfbfbf" cx="410.483" cy="353.103" r="40.459999"
                            data-original="#BFBFBF" data-old_color="#FBFBFD" id="circle22" />
                        <path class="active-path" style="fill:#000000"
                            d="m 410.483,401.655 c -26.773,0 -48.552,-21.779 -48.552,-48.552 0,-26.773 21.779,-48.552 48.552,-48.552 26.773,0 48.552,21.779 48.552,48.552 -0.001,26.773 -21.779,48.552 -48.552,48.552 z m 0,-79.448 c -17.039,0 -30.897,13.857 -30.897,30.897 0,17.04 13.857,30.896 30.897,30.896 17.04,0 30.897,-13.857 30.897,-30.897 0,-17.04 -13.858,-30.896 -30.897,-30.896 z"
                            data-original="#000000" data-old_color="#504B5A" id="path24" />
                        <circle class="" style="fill:#ce1127" cx="410.483" cy="353.103" r="17.655001"
                            data-original="#CE1127" data-old_color="#ce1127" id="circle26" />
                        <path class="" style="fill:#999999"
                            d="m 494.345,357.517 h 8.828 c 4.875,0 8.828,-3.953 8.828,-8.828 v -17.655 c 0,-4.875 -3.953,-8.828 -8.828,-8.828 h -8.828 c -4.875,0 -8.828,3.953 -8.828,8.828 v 17.655 c 0,4.876 3.953,8.828 8.828,8.828 z"
                            data-original="#999999" data-old_color="#666666" id="path28" />
                        <path class="" style="fill:#bfbfbf"
                            d="m 494.345,286.897 h 8.828 v 26.483 h -8.828 c -4.875,0 -8.828,-3.953 -8.828,-8.828 v -8.828 c 0,-4.875 3.953,-8.827 8.828,-8.827 z"
                            data-original="#BFBFBF" data-old_color="#FBFBFD" id="path30" />
                        <path class="" style="fill:#999999"
                            d="m 444.242,172.138 h -55.828 c -4.875,0 -8.828,3.953 -8.828,8.828 v 44.138 c 0,4.875 3.953,8.828 8.828,8.828 h 82.434 c 4.476,0 7.56,-4.49 5.953,-8.668 l -16.079,-41.809 c -2.624,-6.818 -9.174,-11.317 -16.48,-11.317 z"
                            data-original="#999999" data-old_color="#666666" id="path32" />
                    </g>
                </g>
            </g>
        </g>
    </g>
</svg>